<?xml version="1.0" encoding="UTF-8" standalone="no"?>
<svg
   width="32"
   height="32"
   viewBox="0 0 256 256"
   version="1.1"
   id="svg2"
   sodipodi:docname="phosphor-gear-duotone.svg"
   inkscape:version="1.4.2 (ebf0e940, 2025-05-08)"
   inkscape:export-filename="tls_plugin_settings.png"
   inkscape:export-xdpi="24"
   inkscape:export-ydpi="24"
   xmlns:inkscape="http://www.inkscape.org/namespaces/inkscape"
   xmlns:sodipodi="http://sodipodi.sourceforge.net/DTD/sodipodi-0.dtd"
   xmlns="http://www.w3.org/2000/svg"
   xmlns:svg="http://www.w3.org/2000/svg">
  <defs
     id="defs2" />
  <sodipodi:namedview
     id="namedview2"
     pagecolor="#ffffff"
     bordercolor="#000000"
     borderopacity="0.25"
     inkscape:showpageshadow="2"
     inkscape:pageopacity="0.0"
     inkscape:pagecheckerboard="0"
     inkscape:deskcolor="#d1d1d1"
     inkscape:zoom="18.384776"
     inkscape:cx="7.5606034"
     inkscape:cy="19.391044"
     inkscape:window-width="2560"
     inkscape:window-height="1382"
     inkscape:window-x="0"
     inkscape:window-y="30"
     inkscape:window-maximized="1"
     inkscape:current-layer="svg2" />
  <!-- Icon from Phosphor by Phosphor Icons - https://github.com/phosphor-icons/core/blob/main/LICENSE -->
  <path
     d="m 207.86,123.18 16.78,-21 A 99.14,99.14 0 0 0 214.57,77.89 l -26.7,-3 a 81,81 0 0 0 -6.81,-6.81 l -3,-26.71 a 99.43,99.43 0 0 0 -24.3,-10 l -21,16.77 a 81.59,81.59 0 0 0 -9.64,0 l -21,-16.78 A 99.14,99.14 0 0 0 77.91,41.43 l -3,26.7 a 81,81 0 0 0 -6.81,6.81 l -26.71,3 a 99.43,99.43 0 0 0 -10,24.3 l 16.77,21 a 81.59,81.59 0 0 0 0,9.64 l -16.78,21 a 99.14,99.14 0 0 0 10.07,24.29 l 26.7,3 a 81,81 0 0 0 6.81,6.81 l 3,26.71 a 99.43,99.43 0 0 0 24.3,10 l 21,-16.77 a 81.59,81.59 0 0 0 9.64,0 l 21,16.78 a 99.14,99.14 0 0 0 24.29,-10.07 l 3,-26.7 a 81,81 0 0 0 6.81,-6.81 l 26.71,-3 a 99.43,99.43 0 0 0 10,-24.3 l -16.77,-21 a 81.59,81.59 0 0 0 -0.08,-9.64 z M 128,168 a 40,40 0 1 1 40,-40 40,40 0 0 1 -40,40 z"
     opacity="0.2"
     id="path1"
     style="display:inline;fill:#179edc;fill-opacity:1" />
  <circle
     cx="128"
     cy="128"
     r="40"
     fill="none"
     stroke="currentColor"
     stroke-linecap="round"
     stroke-linejoin="round"
     stroke-width="16"
     id="circle1"
     style="display:inline;fill:none;fill-opacity:1;stroke:#57595e;stroke-opacity:1" />
  <path
     d="M 41.43,178.09 A 99.14,99.14 0 0 1 31.36,153.8 l 16.78,-21 a 81.59,81.59 0 0 1 0,-9.64 l -16.77,-21 a 99.43,99.43 0 0 1 10.05,-24.3 l 26.71,-3 a 81,81 0 0 1 6.81,-6.81 l 3,-26.7 a 99.14,99.14 0 0 1 24.26,-9.99 l 21,16.78 a 81.59,81.59 0 0 1 9.64,0 l 21,-16.77 a 99.43,99.43 0 0 1 24.3,10.05 l 3,26.71 a 81,81 0 0 1 6.81,6.81 l 26.7,3 a 99.14,99.14 0 0 1 10.07,24.29 l -16.78,21 a 81.59,81.59 0 0 1 0,9.64 l 16.77,21 a 99.43,99.43 0 0 1 -10,24.3 l -26.71,3 a 81,81 0 0 1 -6.81,6.81 l -3,26.7 a 99.14,99.14 0 0 1 -24.29,10.07 l -21,-16.78 a 81.59,81.59 0 0 1 -9.64,0 l -21,16.77 a 99.43,99.43 0 0 1 -24.3,-10 l -3,-26.71 a 81,81 0 0 1 -6.81,-6.81 z"
     fill="none"
     stroke="currentColor"
     stroke-linecap="round"
     stroke-linejoin="round"
     stroke-width="16"
     id="path2"
     style="display:inline;stroke:#57595e;stroke-opacity:1" />
</svg>
